<?xml version="1.0" standalone="no"?>
<!DOCTYPE svg PUBLIC "-//W3C//DTD SVG 20010904//EN"
 "http://www.w3.org/TR/2001/REC-SVG-20010904/DTD/svg10.dtd">
<svg version="1.0" xmlns="http://www.w3.org/2000/svg"
 width="128.000000pt" height="128.000000pt" viewBox="0 0 128.000000 128.000000"
 preserveAspectRatio="xMidYMid meet">

<g transform="translate(0.000000,128.000000) scale(0.100000,-0.100000)"
fill="#000000" stroke="none">
<path d="M0 1060 c0 -174 3 -220 12 -214 11 6 11 4 1 -7 -18 -19 -18 -379 0
-398 9 -11 9 -13 0 -7 -10 6 -13 -40 -13 -214 l0 -221 227 1 c158 1 232 5 242
13 12 9 13 9 7 0 -5 -10 10 -13 66 -12 60 2 66 3 33 8 l-40 7 45 7 c25 3 72 9
105 12 261 26 476 209 540 460 18 69 20 202 4 277 -6 29 -29 91 -51 137 -88
185 -279 315 -493 336 -33 3 -80 9 -105 12 l-45 7 40 7 c33 5 27 6 -33 8 -56
1 -71 -2 -66 -11 6 -10 5 -10 -7 -1 -10 8 -84 12 -242 13 l-227 1 0 -221z
m456 195 c18 -9 23 -15 12 -15 -9 0 -20 5 -24 11 -3 6 -18 8 -33 5 -19 -5 -22
-4 -11 4 20 13 23 13 56 -5z m61 -1 c-3 -3 -12 -4 -19 -1 -8 3 -5 6 6 6 11 1
17 -2 13 -5z m46 -11 c-7 -2 -19 -2 -25 0 -7 3 -2 5 12 5 14 0 19 -2 13 -5z
m-313 -107 c0 -2 -8 -10 -17 -17 -16 -13 -17 -12 -4 4 13 16 21 21 21 13z
m569 -359 l92 -138 -92 -139 c-62 -94 -95 -136 -103 -130 -56 44 -97 87 -102
106 -3 13 -11 21 -17 17 -11 -7 -11 -6 45 84 l39 61 -42 69 c-23 37 -44 72
-47 77 -3 5 0 6 5 3 6 -4 14 4 17 17 8 31 83 99 102 92 12 -5 12 -2 3 17 -23
44 10 -1 100 -136z m-578 -624 c13 -16 12 -17 -3 -4 -10 7 -18 15 -18 17 0 8
8 3 21 -13z m212 -129 c-24 -12 -36 -13 -50 -5 -15 10 -14 10 8 5 15 -3 30 -1
33 5 4 6 15 11 24 11 10 0 4 -7 -15 -16z m110 9 c-7 -2 -19 -2 -25 0 -7 3 -2
5 12 5 14 0 19 -2 13 -5z m-46 -9 c-3 -3 -12 -4 -19 -1 -8 3 -5 6 6 6 11 1 17
-2 13 -5z"/>
<path d="M807 1264 c29 -7 85 -30 125 -51 81 -42 100 -50 78 -33 -10 8 -11 10
-2 8 8 -2 12 -6 10 -10 -4 -9 33 -48 46 -48 6 0 2 7 -8 15 -11 8 -15 15 -9 15
5 0 18 -10 29 -22 12 -13 13 -18 4 -13 -13 8 -13 6 -1 -8 7 -9 18 -14 25 -10
6 3 8 3 4 -2 -4 -4 12 -33 36 -64 53 -68 102 -163 120 -234 12 -48 14 -31 15
211 l2 263 -263 -2 c-242 -1 -259 -3 -211 -15z m83 -9 c33 -19 21 -19 -21 0
-19 8 -27 14 -19 14 8 0 26 -6 40 -14z m61 -32 c13 -16 12 -17 -3 -4 -10 7
-18 15 -18 17 0 8 8 3 21 -13z m239 -217 c0 -5 -1 -7 -3 -5 -2 2 -18 24 -36
49 l-33 45 36 -40 c20 -22 36 -44 36 -49z m34 -51 l17 -30 -20 24 c-12 13 -21
28 -21 34 0 12 0 11 24 -28z m45 -105 c0 -8 -6 0 -14 19 -8 18 -15 36 -15 40
1 13 29 -45 29 -59z"/>
<path d="M1266 483 c-8 -55 -70 -179 -121 -244 -24 -31 -42 -59 -40 -63 3 -3
2 -4 -1 -1 -4 2 -32 -15 -63 -39 -68 -53 -163 -102 -234 -120 -48 -12 -31 -14
211 -15 l263 -2 -2 261 c-1 143 -2 260 -4 260 -1 0 -5 -17 -9 -37z m-11 -90
c-9 -15 -13 -19 -10 -8 4 11 10 29 13 40 3 11 7 14 9 8 3 -7 -3 -24 -12 -40z
m-33 -72 c-9 -16 -18 -28 -21 -26 -4 5 27 55 34 55 2 0 -4 -13 -13 -29z m-62
-91 c-43 -54 -49 -51 -8 4 18 24 35 42 37 40 2 -2 -11 -21 -29 -44z m-105
-105 c-22 -19 -44 -35 -49 -35 -5 0 11 16 35 34 57 45 66 45 14 1z m-95 -59
c0 -2 -8 -10 -17 -17 -16 -13 -17 -12 -4 4 13 16 21 21 21 13z m-70 -41 c-14
-8 -32 -14 -40 -14 -8 0 -1 6 15 14 40 18 57 18 25 0z"/>
</g>
</svg>
